<?xml version="1.0" encoding="utf-8" standalone="no"?>
<!DOCTYPE svg PUBLIC "-//W3C//DTD SVG 1.1//EN"
  "http://www.w3.org/Graphics/SVG/1.1/DTD/svg11.dtd">
<!-- Created with matplotlib (http://matplotlib.org/) -->
<svg height="193.462445pt" version="1.1" viewBox="0 0 221.968423 193.462445" width="221.968423pt" xmlns="http://www.w3.org/2000/svg" xmlns:xlink="http://www.w3.org/1999/xlink">
 <defs>
  <style type="text/css">
*{stroke-linecap:butt;stroke-linejoin:round;}
  </style>
 </defs>
 <g id="figure_1">
  <g id="patch_1">
   <path d="M 0 193.462445 
L 221.968423 193.462445 
L 221.968423 0 
L 0 0 
z
" style="fill:#ffffff;"/>
  </g>
  <g id="axes_1">
   <g id="patch_2">
    <path d="M 34.269717 162.432 
L 212.829717 162.432 
L 212.829717 7.2 
L 34.269717 7.2 
z
" style="fill:#ffffff;"/>
   </g>
   <g id="matplotlib.axis_1">
    <g id="xtick_1">
     <g id="line2d_1">
      <defs>
       <path d="M 0 0 
L 0 -3.5 
" id="m5307fb768e" style="stroke:#000000;stroke-width:0.5;"/>
      </defs>
      <g>
       <use style="stroke:#000000;stroke-width:0.5;" x="46.173717" xlink:href="#m5307fb768e" y="162.432"/>
      </g>
     </g>
     <g id="line2d_2">
      <defs>
       <path d="M 0 0 
L 0 3.5 
" id="m98f93f390f" style="stroke:#000000;stroke-width:0.5;"/>
      </defs>
      <g>
       <use style="stroke:#000000;stroke-width:0.5;" x="46.173717" xlink:href="#m98f93f390f" y="7.2"/>
      </g>
     </g>
     <g id="text_1">
      <!-- $1$ -->
      <defs>
       <path d="M 25.90625 50.59375 
L 25.90625 0 
L 34.703125 0 
L 34.703125 71.015625 
L 28.90625 71.015625 
C 25.796875 60.109375 23.796875 58.609375 10.203125 56.90625 
L 10.203125 50.59375 
z
" id="Nimbus_Sans_L_Regular-49"/>
      </defs>
      <g transform="translate(44.23501 173.400824)scale(0.07 -0.07)">
       <use transform="scale(0.996264)" xlink:href="#Nimbus_Sans_L_Regular-49"/>
      </g>
     </g>
    </g>
    <g id="xtick_2">
     <g id="line2d_3">
      <g>
       <use style="stroke:#000000;stroke-width:0.5;" x="69.981717" xlink:href="#m5307fb768e" y="162.432"/>
      </g>
     </g>
     <g id="line2d_4">
      <g>
       <use style="stroke:#000000;stroke-width:0.5;" x="69.981717" xlink:href="#m98f93f390f" y="7.2"/>
      </g>
     </g>
     <g id="text_2">
      <!-- $2$ -->
      <defs>
       <path d="M 50.59375 8.71875 
L 13.296875 8.71875 
C 14.203125 14.53125 17.40625 18.234375 26.09375 23.34375 
L 36.09375 28.75 
C 46 34.15625 51.09375 41.453125 51.09375 50.171875 
C 51.09375 56.078125 48.703125 61.59375 44.5 65.390625 
C 40.296875 69.203125 35.09375 71 28.40625 71 
C 19.40625 71 12.703125 67.796875 8.796875 61.796875 
C 6.296875 57.984375 5.203125 53.578125 5 46.359375 
L 13.796875 46.359375 
C 14.09375 51.171875 14.703125 54.078125 15.90625 56.375 
C 18.203125 60.6875 22.796875 63.296875 28.09375 63.296875 
C 36.09375 63.296875 42.09375 57.578125 42.09375 49.96875 
C 42.09375 44.359375 38.796875 39.546875 32.5 35.953125 
L 23.296875 30.75 
C 8.5 22.34375 4.203125 15.625 3.40625 0 
L 50.59375 0 
z
" id="Nimbus_Sans_L_Regular-50"/>
      </defs>
      <g transform="translate(68.04301 173.400824)scale(0.07 -0.07)">
       <use transform="scale(0.996264)" xlink:href="#Nimbus_Sans_L_Regular-50"/>
      </g>
     </g>
    </g>
    <g id="xtick_3">
     <g id="line2d_5">
      <g>
       <use style="stroke:#000000;stroke-width:0.5;" x="93.789717" xlink:href="#m5307fb768e" y="162.432"/>
      </g>
     </g>
     <g id="line2d_6">
      <g>
       <use style="stroke:#000000;stroke-width:0.5;" x="93.789717" xlink:href="#m98f93f390f" y="7.2"/>
      </g>
     </g>
     <g id="text_3">
      <!-- $3$ -->
      <defs>
       <path d="M 22.09375 33 
L 23.203125 33 
L 26.90625 33 
C 36.59375 33 41.59375 28.59375 41.59375 20.0625 
C 41.59375 11.125 36.09375 5.8125 26.90625 5.8125 
C 17.296875 5.8125 12.59375 10.640625 12 21.015625 
L 3.203125 21.015625 
C 3.59375 15.28125 4.59375 11.5625 6.296875 8.34375 
C 9.90625 1.515625 16.90625 -2 26.59375 -2 
C 41.203125 -2 50.59375 6.734375 50.59375 20.203125 
C 50.59375 29.25 47.09375 34.28125 38.59375 37.203125 
C 45.203125 39.78125 48.5 44.71875 48.5 51.734375 
C 48.5 63.78125 40.40625 71 26.90625 71 
C 12.59375 71 5 63.28125 4.703125 48.359375 
L 13.5 48.359375 
C 13.59375 52.59375 14 54.953125 15.09375 57.109375 
C 17.09375 60.9375 21.5 63.296875 27 63.296875 
C 34.796875 63.296875 39.5 58.75 39.5 51.359375 
C 39.5 46.421875 37.703125 43.453125 33.796875 41.890625 
C 31.40625 40.90625 28.296875 40.5 22.09375 40.5 
z
" id="Nimbus_Sans_L_Regular-51"/>
      </defs>
      <g transform="translate(91.85101 173.400824)scale(0.07 -0.07)">
       <use transform="scale(0.996264)" xlink:href="#Nimbus_Sans_L_Regular-51"/>
      </g>
     </g>
    </g>
    <g id="xtick_4">
     <g id="line2d_7">
      <g>
       <use style="stroke:#000000;stroke-width:0.5;" x="117.597717" xlink:href="#m5307fb768e" y="162.432"/>
      </g>
     </g>
     <g id="line2d_8">
      <g>
       <use style="stroke:#000000;stroke-width:0.5;" x="117.597717" xlink:href="#m98f93f390f" y="7.2"/>
      </g>
     </g>
     <g id="text_4">
      <!-- $4$ -->
      <defs>
       <path d="M 32.703125 17 
L 32.703125 0 
L 41.5 0 
L 41.5 17 
L 52 17 
L 52 24.90625 
L 41.5 24.90625 
L 41.5 71.015625 
L 35 71.015625 
L 2.796875 26.3125 
L 2.796875 17 
z
M 32.703125 24.90625 
L 10.5 24.90625 
L 32.703125 55.984375 
z
" id="Nimbus_Sans_L_Regular-52"/>
      </defs>
      <g transform="translate(115.65901 173.400824)scale(0.07 -0.07)">
       <use transform="scale(0.996264)" xlink:href="#Nimbus_Sans_L_Regular-52"/>
      </g>
     </g>
    </g>
    <g id="xtick_5">
     <g id="line2d_9">
      <g>
       <use style="stroke:#000000;stroke-width:0.5;" x="141.405717" xlink:href="#m5307fb768e" y="162.432"/>
      </g>
     </g>
     <g id="line2d_10">
      <g>
       <use style="stroke:#000000;stroke-width:0.5;" x="141.405717" xlink:href="#m98f93f390f" y="7.2"/>
      </g>
     </g>
     <g id="text_5">
      <!-- $5$ -->
      <defs>
       <path d="M 47.59375 71 
L 11 71 
L 5.703125 32.59375 
L 13.796875 32.59375 
C 17.90625 37.484375 21.296875 39.1875 26.796875 39.1875 
C 36.296875 39.1875 42.296875 32.6875 42.296875 22.203125 
C 42.296875 12 36.40625 5.8125 26.796875 5.8125 
C 19.09375 5.8125 14.40625 9.703125 12.296875 17.703125 
L 3.5 17.703125 
C 4.703125 11.90625 5.703125 9.09375 7.796875 6.484375 
C 11.796875 1.09375 19 -2 27 -2 
C 41.296875 -2 51.296875 8.390625 51.296875 23.390625 
C 51.296875 37.40625 42 47 28.40625 47 
C 23.40625 47 19.40625 45.703125 15.296875 42.6875 
L 18.09375 62.296875 
L 47.59375 62.296875 
z
" id="Nimbus_Sans_L_Regular-53"/>
      </defs>
      <g transform="translate(139.46701 173.400824)scale(0.07 -0.07)">
       <use transform="scale(0.996264)" xlink:href="#Nimbus_Sans_L_Regular-53"/>
      </g>
     </g>
    </g>
    <g id="xtick_6">
     <g id="line2d_11">
      <g>
       <use style="stroke:#000000;stroke-width:0.5;" x="165.213717" xlink:href="#m5307fb768e" y="162.432"/>
      </g>
     </g>
     <g id="line2d_12">
      <g>
       <use style="stroke:#000000;stroke-width:0.5;" x="165.213717" xlink:href="#m98f93f390f" y="7.2"/>
      </g>
     </g>
     <g id="text_6">
      <!-- $6$ -->
      <defs>
       <path d="M 49.796875 52.84375 
C 48.09375 64.234375 40.5 71 29.703125 71 
C 21.90625 71 14.90625 67.21875 10.703125 60.9375 
C 6.296875 54.0625 4.296875 45.375 4.296875 32.515625 
C 4.296875 20.640625 6.09375 13.0625 10.296875 6.78125 
C 14.09375 1.078125 20.296875 -2 28.09375 -2 
C 41.59375 -2 51.296875 8.09375 51.296875 22.109375 
C 51.296875 35.4375 42.296875 44.8125 29.59375 44.8125 
C 22.59375 44.8125 17.09375 42.109375 13.296875 36.90625 
C 13.40625 53.8125 19 63.1875 29.09375 63.1875 
C 35.296875 63.1875 39.59375 59.421875 41 52.84375 
z
M 28.5 37 
C 37 37 42.296875 31.03125 42.296875 21.40625 
C 42.296875 12.390625 36.296875 5.8125 28.203125 5.8125 
C 20 5.8125 13.796875 12.703125 13.796875 21.90625 
C 13.796875 30.828125 19.796875 37 28.5 37 
z
" id="Nimbus_Sans_L_Regular-54"/>
      </defs>
      <g transform="translate(163.27501 173.400824)scale(0.07 -0.07)">
       <use transform="scale(0.996264)" xlink:href="#Nimbus_Sans_L_Regular-54"/>
      </g>
     </g>
    </g>
    <g id="xtick_7">
     <g id="line2d_13">
      <g>
       <use style="stroke:#000000;stroke-width:0.5;" x="189.021717" xlink:href="#m5307fb768e" y="162.432"/>
      </g>
     </g>
     <g id="line2d_14">
      <g>
       <use style="stroke:#000000;stroke-width:0.5;" x="189.021717" xlink:href="#m98f93f390f" y="7.2"/>
      </g>
     </g>
     <g id="text_7">
      <!-- $7$ -->
      <defs>
       <path d="M 52 70.703125 
L 4.59375 70.703125 
L 4.59375 62 
L 42.90625 62 
C 26 37.78125 19.09375 22.90625 13.796875 -0.5 
L 23.203125 -0.5 
C 27.09375 22.296875 36 41.890625 52 63.296875 
z
" id="Nimbus_Sans_L_Regular-55"/>
      </defs>
      <g transform="translate(187.08301 173.400824)scale(0.07 -0.07)">
       <use transform="scale(0.996264)" xlink:href="#Nimbus_Sans_L_Regular-55"/>
      </g>
     </g>
    </g>
    <g id="xtick_8">
     <g id="line2d_15">
      <g>
       <use style="stroke:#000000;stroke-width:0.5;" x="212.829717" xlink:href="#m5307fb768e" y="162.432"/>
      </g>
     </g>
     <g id="line2d_16">
      <g>
       <use style="stroke:#000000;stroke-width:0.5;" x="212.829717" xlink:href="#m98f93f390f" y="7.2"/>
      </g>
     </g>
     <g id="text_8">
      <!-- $8$ -->
      <defs>
       <path d="M 39.09375 37.484375 
C 46.40625 41.875 48.796875 45.46875 48.796875 52.15625 
C 48.796875 63.21875 40.09375 71 27.5 71 
C 15 71 6.203125 63.21875 6.203125 52.15625 
C 6.203125 45.578125 8.59375 41.984375 15.796875 37.484375 
C 7.703125 33.59375 3.703125 27.71875 3.703125 19.9375 
C 3.703125 6.96875 13.5 -2 27.5 -2 
C 41.5 -2 51.296875 6.984375 51.296875 19.84375 
C 51.296875 27.71875 47.296875 33.59375 39.09375 37.484375 
z
M 27.5 63.1875 
C 35 63.1875 39.796875 58.8125 39.796875 51.953125 
C 39.796875 45.375 34.90625 41 27.5 41 
C 20.09375 41 15.203125 45.375 15.203125 52.046875 
C 15.203125 58.8125 20.09375 63.1875 27.5 63.1875 
z
M 27.5 33.578125 
C 36.296875 33.578125 42.296875 28 42.296875 19.734375 
C 42.296875 11.390625 36.296875 5.8125 27.296875 5.8125 
C 18.703125 5.8125 12.703125 11.484375 12.703125 19.734375 
C 12.703125 28 18.703125 33.578125 27.5 33.578125 
z
" id="Nimbus_Sans_L_Regular-56"/>
      </defs>
      <g transform="translate(210.89101 173.400824)scale(0.07 -0.07)">
       <use transform="scale(0.996264)" xlink:href="#Nimbus_Sans_L_Regular-56"/>
      </g>
     </g>
    </g>
    <g id="text_9">
     <!-- Temperature -->
     <defs>
      <path d="M 35.40625 64.78125 
L 59.296875 64.78125 
L 59.296875 73 
L 2.09375 73 
L 2.09375 64.78125 
L 26.09375 64.78125 
L 26.09375 -0.21875 
L 35.40625 -0.21875 
z
" id="Nimbus_Sans_L_Regular-84"/>
      <path d="M 51.296875 23.890625 
C 51.296875 31.78125 50.703125 36.53125 49.203125 40.375 
C 45.796875 48.859375 37.796875 54 28 54 
C 13.40625 54 4 42.84375 4 25.703125 
C 4 8.546875 13.09375 -2 27.796875 -2 
C 39.796875 -2 48.09375 4.84375 50.203125 16.3125 
L 41.796875 16.3125 
C 39.5 9.34375 34.796875 5.703125 28.09375 5.703125 
C 22.796875 5.703125 18.296875 8.125 15.5 12.578125 
C 13.5 15.59375 12.796875 18.640625 12.703125 23.890625 
z
M 12.90625 31 
C 13.59375 40.265625 19.5 46.28125 27.90625 46.28125 
C 36.09375 46.28125 42.40625 39.53125 42.40625 31 
C 42.40625 31 42.40625 31 42.296875 31 
z
" id="Nimbus_Sans_L_Regular-101"/>
      <path d="M 7 52.484375 
L 7 0 
L 15.40625 0 
L 15.40625 32.953125 
C 15.40625 40.578125 20.90625 46.6875 27.703125 46.6875 
C 33.90625 46.6875 37.40625 42.875 37.40625 36.15625 
L 37.40625 0 
L 45.796875 0 
L 45.796875 32.953125 
C 45.796875 40.578125 51.296875 46.6875 58.09375 46.6875 
C 64.203125 46.6875 67.796875 42.78125 67.796875 36.15625 
L 67.796875 0 
L 76.203125 0 
L 76.203125 39.375 
C 76.203125 48.78125 70.796875 54 61 54 
C 54 54 49.796875 51.890625 44.90625 45.984375 
C 41.796875 51.59375 37.59375 54 30.796875 54 
C 23.796875 54 19.203125 51.390625 14.703125 45.078125 
L 14.703125 52.484375 
z
" id="Nimbus_Sans_L_Regular-109"/>
      <path d="M 5.40625 -22 
L 13.796875 -22 
L 13.796875 5 
C 18.203125 -0.421875 23.09375 -2.8125 29.90625 -2.8125 
C 43.40625 -2.8125 52.296875 8.15625 52.296875 24.984375 
C 52.296875 42.71875 43.703125 53.8125 29.796875 53.8125 
C 22.703125 53.8125 17 50.59375 13.09375 44.390625 
L 13.09375 52.328125 
L 5.40625 52.328125 
z
M 28.40625 46 
C 37.59375 46 43.59375 37.8125 43.59375 25.1875 
C 43.59375 13.171875 37.5 5 28.40625 5 
C 19.59375 5 13.796875 13.078125 13.796875 25.5 
C 13.796875 37.921875 19.59375 46 28.40625 46 
z
" id="Nimbus_Sans_L_Regular-112"/>
      <path d="M 6.90625 52.484375 
L 6.90625 0 
L 15.296875 0 
L 15.296875 27.203125 
C 15.296875 34.703125 17.203125 39.609375 21.203125 42.5 
C 23.796875 44.40625 26.296875 45 32.09375 45 
L 32.09375 53.625 
C 30.703125 53.8125 30 53.8125 28.90625 53.8125 
C 23.5 53.8125 19.40625 50.625 14.59375 42.90625 
L 14.59375 52.484375 
z
" id="Nimbus_Sans_L_Regular-114"/>
      <path d="M 53.5 5.203125 
C 52.59375 5 52.203125 5 51.703125 5 
C 48.796875 5 47.203125 6.484375 47.203125 9.078125 
L 47.203125 39.765625 
C 47.203125 49.015625 40.40625 54 27.5 54 
C 19.90625 54 13.59375 51.8125 10.09375 47.90625 
C 7.703125 45.203125 6.703125 42.21875 6.5 37.03125 
L 14.90625 37.03125 
C 15.59375 43.390625 19.40625 46.28125 27.203125 46.28125 
C 34.703125 46.28125 38.90625 43.484375 38.90625 38.515625 
L 38.90625 36.328125 
C 38.90625 32.828125 36.796875 31.34375 30.203125 30.546875 
C 18.40625 29.0625 16.59375 28.65625 13.40625 27.359375 
C 7.296875 24.875 4.203125 20.1875 4.203125 13.421875 
C 4.203125 3.96875 10.796875 -2 21.40625 -2 
C 28 -2 33.296875 0.296875 39.203125 5.703125 
C 39.796875 0.390625 42.40625 -2 47.796875 -2 
C 49.5 -2 50.796875 -1.8125 53.5 -1.09375 
z
M 38.90625 16.75 
C 38.90625 13.953125 38.09375 12.265625 35.59375 9.984375 
C 32.203125 6.890625 28.09375 5.3125 23.203125 5.3125 
C 16.703125 5.3125 12.90625 8.390625 12.90625 13.65625 
C 12.90625 19.140625 16.59375 21.921875 25.5 23.21875 
C 34.296875 24.40625 36.09375 24.8125 38.90625 26.09375 
z
" id="Nimbus_Sans_L_Regular-97"/>
      <path d="M 25.40625 52.8125 
L 16.796875 52.8125 
L 16.796875 67 
L 8.5 67 
L 8.5 52.8125 
L 1.40625 52.8125 
L 1.40625 46 
L 8.5 46 
L 8.5 6.3125 
C 8.5 1 12.09375 -2 18.59375 -2 
C 20.59375 -2 22.59375 -1.8125 25.40625 -1.296875 
L 25.40625 5.71875 
C 24.296875 5.40625 23 5.3125 21.40625 5.3125 
C 17.796875 5.3125 16.796875 6.3125 16.796875 10.015625 
L 16.796875 46 
L 25.40625 46 
z
" id="Nimbus_Sans_L_Regular-116"/>
      <path d="M 48.203125 0.515625 
L 48.203125 53 
L 39.90625 53 
L 39.90625 23.109375 
C 39.90625 12.34375 34.296875 5.3125 25.59375 5.3125 
C 19 5.3125 14.796875 9.328125 14.796875 15.671875 
L 14.796875 53 
L 6.5 53 
L 6.5 12.375 
C 6.5 3.625 13 -2 23.203125 -2 
C 30.90625 -2 35.796875 0.703125 40.703125 7.625 
L 40.703125 0.515625 
z
" id="Nimbus_Sans_L_Regular-117"/>
     </defs>
     <g transform="translate(101.257519 184.564862)scale(0.08 -0.08)">
      <use transform="scale(0.996264)" xlink:href="#Nimbus_Sans_L_Regular-84"/>
      <use transform="translate(48.916949 0)scale(0.996264)" xlink:href="#Nimbus_Sans_L_Regular-101"/>
      <use transform="translate(104.308626 0)scale(0.996264)" xlink:href="#Nimbus_Sans_L_Regular-109"/>
      <use transform="translate(187.297056 0)scale(0.996264)" xlink:href="#Nimbus_Sans_L_Regular-112"/>
      <use transform="translate(242.688733 0)scale(0.996264)" xlink:href="#Nimbus_Sans_L_Regular-101"/>
      <use transform="translate(298.08041 0)scale(0.996264)" xlink:href="#Nimbus_Sans_L_Regular-114"/>
      <use transform="translate(330.259543 0)scale(0.996264)" xlink:href="#Nimbus_Sans_L_Regular-97"/>
      <use transform="translate(385.65122 0)scale(0.996264)" xlink:href="#Nimbus_Sans_L_Regular-116"/>
      <use transform="translate(413.34639 0)scale(0.996264)" xlink:href="#Nimbus_Sans_L_Regular-117"/>
      <use transform="translate(468.738067 0)scale(0.996264)" xlink:href="#Nimbus_Sans_L_Regular-114"/>
      <use transform="translate(501.913296 0)scale(0.996264)" xlink:href="#Nimbus_Sans_L_Regular-101"/>
     </g>
    </g>
   </g>
   <g id="matplotlib.axis_2">
    <g id="ytick_1">
     <g id="line2d_17">
      <defs>
       <path d="M 0 0 
L 3.5 0 
" id="m7b716311e6" style="stroke:#000000;stroke-width:0.5;"/>
      </defs>
      <g>
       <use style="stroke:#000000;stroke-width:0.5;" x="34.269717" xlink:href="#m7b716311e6" y="155.376"/>
      </g>
     </g>
     <g id="line2d_18">
      <defs>
       <path d="M 0 0 
L -3.5 0 
" id="me55dce2c05" style="stroke:#000000;stroke-width:0.5;"/>
      </defs>
      <g>
       <use style="stroke:#000000;stroke-width:0.5;" x="212.829717" xlink:href="#me55dce2c05" y="155.376"/>
      </g>
     </g>
     <g id="text_10">
      <!-- $0.0$ -->
      <defs>
       <path d="M 27.5 71 
C 20.90625 71 14.90625 68.125 11.203125 63.21875 
C 6.59375 57.046875 4.296875 47.5625 4.296875 34.5 
C 4.296875 10.671875 12.296875 -2 27.5 -2 
C 42.5 -2 50.703125 10.671875 50.703125 33.90625 
C 50.703125 47.65625 48.5 56.84375 43.796875 63.21875 
C 40.09375 68.21875 34.203125 71 27.5 71 
z
M 27.5 63.1875 
C 37 63.1875 41.703125 53.625 41.703125 34.703125 
C 41.703125 14.671875 37.09375 5.3125 27.296875 5.3125 
C 18 5.3125 13.296875 15.078125 13.296875 34.40625 
C 13.296875 53.71875 18 63.1875 27.5 63.1875 
z
" id="Nimbus_Sans_L_Regular-48"/>
       <path d="M 19.09375 10.421875 
L 8.703125 10.421875 
L 8.703125 0 
L 19.09375 0 
z
" id="Nimbus_Sans_L_Regular-46"/>
      </defs>
      <g transform="translate(18.576239 157.860412)scale(0.07 -0.07)">
       <use transform="scale(0.996264)" xlink:href="#Nimbus_Sans_L_Regular-48"/>
       <use transform="translate(55.391677 0)scale(0.996264)" xlink:href="#Nimbus_Sans_L_Regular-46"/>
       <use transform="translate(83.086847 0)scale(0.996264)" xlink:href="#Nimbus_Sans_L_Regular-48"/>
      </g>
     </g>
    </g>
    <g id="ytick_2">
     <g id="line2d_19">
      <g>
       <use style="stroke:#000000;stroke-width:0.5;" x="34.269717" xlink:href="#m7b716311e6" y="135.389892"/>
      </g>
     </g>
     <g id="line2d_20">
      <g>
       <use style="stroke:#000000;stroke-width:0.5;" x="212.829717" xlink:href="#me55dce2c05" y="135.389892"/>
      </g>
     </g>
     <g id="text_11">
      <!-- $0.2$ -->
      <g transform="translate(18.576239 137.874305)scale(0.07 -0.07)">
       <use transform="scale(0.996264)" xlink:href="#Nimbus_Sans_L_Regular-48"/>
       <use transform="translate(55.391677 0)scale(0.996264)" xlink:href="#Nimbus_Sans_L_Regular-46"/>
       <use transform="translate(83.086847 0)scale(0.996264)" xlink:href="#Nimbus_Sans_L_Regular-50"/>
      </g>
     </g>
    </g>
    <g id="ytick_3">
     <g id="line2d_21">
      <g>
       <use style="stroke:#000000;stroke-width:0.5;" x="34.269717" xlink:href="#m7b716311e6" y="115.403785"/>
      </g>
     </g>
     <g id="line2d_22">
      <g>
       <use style="stroke:#000000;stroke-width:0.5;" x="212.829717" xlink:href="#me55dce2c05" y="115.403785"/>
      </g>
     </g>
     <g id="text_12">
      <!-- $0.4$ -->
      <g transform="translate(18.576239 117.888197)scale(0.07 -0.07)">
       <use transform="scale(0.996264)" xlink:href="#Nimbus_Sans_L_Regular-48"/>
       <use transform="translate(55.391677 0)scale(0.996264)" xlink:href="#Nimbus_Sans_L_Regular-46"/>
       <use transform="translate(83.086847 0)scale(0.996264)" xlink:href="#Nimbus_Sans_L_Regular-52"/>
      </g>
     </g>
    </g>
    <g id="ytick_4">
     <g id="line2d_23">
      <g>
       <use style="stroke:#000000;stroke-width:0.5;" x="34.269717" xlink:href="#m7b716311e6" y="95.417677"/>
      </g>
     </g>
     <g id="line2d_24">
      <g>
       <use style="stroke:#000000;stroke-width:0.5;" x="212.829717" xlink:href="#me55dce2c05" y="95.417677"/>
      </g>
     </g>
     <g id="text_13">
      <!-- $0.6$ -->
      <g transform="translate(18.576239 97.902089)scale(0.07 -0.07)">
       <use transform="scale(0.996264)" xlink:href="#Nimbus_Sans_L_Regular-48"/>
       <use transform="translate(55.391677 0)scale(0.996264)" xlink:href="#Nimbus_Sans_L_Regular-46"/>
       <use transform="translate(83.086847 0)scale(0.996264)" xlink:href="#Nimbus_Sans_L_Regular-54"/>
      </g>
     </g>
    </g>
    <g id="ytick_5">
     <g id="line2d_25">
      <g>
       <use style="stroke:#000000;stroke-width:0.5;" x="34.269717" xlink:href="#m7b716311e6" y="75.43157"/>
      </g>
     </g>
     <g id="line2d_26">
      <g>
       <use style="stroke:#000000;stroke-width:0.5;" x="212.829717" xlink:href="#me55dce2c05" y="75.43157"/>
      </g>
     </g>
     <g id="text_14">
      <!-- $0.8$ -->
      <g transform="translate(18.576239 77.915982)scale(0.07 -0.07)">
       <use transform="scale(0.996264)" xlink:href="#Nimbus_Sans_L_Regular-48"/>
       <use transform="translate(55.391677 0)scale(0.996264)" xlink:href="#Nimbus_Sans_L_Regular-46"/>
       <use transform="translate(83.086847 0)scale(0.996264)" xlink:href="#Nimbus_Sans_L_Regular-56"/>
      </g>
     </g>
    </g>
    <g id="ytick_6">
     <g id="line2d_27">
      <g>
       <use style="stroke:#000000;stroke-width:0.5;" x="34.269717" xlink:href="#m7b716311e6" y="55.445462"/>
      </g>
     </g>
     <g id="line2d_28">
      <g>
       <use style="stroke:#000000;stroke-width:0.5;" x="212.829717" xlink:href="#me55dce2c05" y="55.445462"/>
      </g>
     </g>
     <g id="text_15">
      <!-- $1.0$ -->
      <g transform="translate(18.576239 57.929874)scale(0.07 -0.07)">
       <use transform="scale(0.996264)" xlink:href="#Nimbus_Sans_L_Regular-49"/>
       <use transform="translate(55.391677 0)scale(0.996264)" xlink:href="#Nimbus_Sans_L_Regular-46"/>
       <use transform="translate(83.086847 0)scale(0.996264)" xlink:href="#Nimbus_Sans_L_Regular-48"/>
      </g>
     </g>
    </g>
    <g id="ytick_7">
     <g id="line2d_29">
      <g>
       <use style="stroke:#000000;stroke-width:0.5;" x="34.269717" xlink:href="#m7b716311e6" y="35.459355"/>
      </g>
     </g>
     <g id="line2d_30">
      <g>
       <use style="stroke:#000000;stroke-width:0.5;" x="212.829717" xlink:href="#me55dce2c05" y="35.459355"/>
      </g>
     </g>
     <g id="text_16">
      <!-- $1.2$ -->
      <g transform="translate(18.576239 37.943767)scale(0.07 -0.07)">
       <use transform="scale(0.996264)" xlink:href="#Nimbus_Sans_L_Regular-49"/>
       <use transform="translate(55.391677 0)scale(0.996264)" xlink:href="#Nimbus_Sans_L_Regular-46"/>
       <use transform="translate(83.086847 0)scale(0.996264)" xlink:href="#Nimbus_Sans_L_Regular-50"/>
      </g>
     </g>
    </g>
    <g id="ytick_8">
     <g id="line2d_31">
      <g>
       <use style="stroke:#000000;stroke-width:0.5;" x="34.269717" xlink:href="#m7b716311e6" y="15.473247"/>
      </g>
     </g>
     <g id="line2d_32">
      <g>
       <use style="stroke:#000000;stroke-width:0.5;" x="212.829717" xlink:href="#me55dce2c05" y="15.473247"/>
      </g>
     </g>
     <g id="text_17">
      <!-- $1.4$ -->
      <g transform="translate(18.576239 17.957659)scale(0.07 -0.07)">
       <use transform="scale(0.996264)" xlink:href="#Nimbus_Sans_L_Regular-49"/>
       <use transform="translate(55.391677 0)scale(0.996264)" xlink:href="#Nimbus_Sans_L_Regular-46"/>
       <use transform="translate(83.086847 0)scale(0.996264)" xlink:href="#Nimbus_Sans_L_Regular-52"/>
      </g>
     </g>
    </g>
    <g id="text_18">
     <!-- Heat capacity -->
     <defs>
      <path d="M 55.09375 33 
L 55.09375 -0.03125 
L 64.40625 -0.03125 
L 64.40625 73 
L 55.09375 73 
L 55.09375 41.21875 
L 17.59375 41.21875 
L 17.59375 73 
L 8.296875 73 
L 8.296875 -0.03125 
L 17.703125 -0.03125 
L 17.703125 33 
z
" id="Nimbus_Sans_L_Regular-72"/>
      <path d="M 47.09375 34.9375 
C 46.703125 40.03125 45.59375 43.328125 43.59375 46.21875 
C 40 51.109375 33.703125 54 26.40625 54 
C 12.296875 54 3.09375 42.84375 3.09375 25.5 
C 3.09375 8.65625 12.09375 -2 26.296875 -2 
C 38.796875 -2 46.703125 5.46875 47.703125 18.234375 
L 39.296875 18.234375 
C 37.90625 9.875 33.59375 5.703125 26.5 5.703125 
C 17.296875 5.703125 11.796875 13.171875 11.796875 25.5 
C 11.796875 38.53125 17.203125 46.28125 26.296875 46.28125 
C 33.296875 46.28125 37.703125 42.203125 38.703125 34.9375 
z
" id="Nimbus_Sans_L_Regular-99"/>
      <path d="M 15 52.484375 
L 6.703125 52.484375 
L 6.703125 0 
L 15 0 
z
M 15 73 
L 6.59375 73 
L 6.59375 62.484375 
L 15 62.484375 
z
" id="Nimbus_Sans_L_Regular-105"/>
      <path d="M 38.796875 52.5 
L 24.296875 11.53125 
L 10.90625 52.5 
L 2 52.5 
L 19.703125 -0.328125 
L 16.5 -8.65625 
C 15.203125 -12.375 13.296875 -13.78125 9.796875 -13.78125 
C 8.59375 -13.78125 7.203125 -13.578125 5.40625 -13.171875 
L 5.40625 -20.703125 
C 7.09375 -21.59375 8.796875 -22 11 -22 
C 13.703125 -22 16.59375 -21.09375 18.796875 -19.484375 
C 21.40625 -17.578125 22.90625 -15.359375 24.5 -11.140625 
L 47.796875 52.5 
z
" id="Nimbus_Sans_L_Regular-121"/>
     </defs>
     <g transform="translate(12.878656 108.957206)rotate(-90)scale(0.08 -0.08)">
      <use transform="scale(0.996264)" xlink:href="#Nimbus_Sans_L_Regular-72"/>
      <use transform="translate(71.929985 0)scale(0.996264)" xlink:href="#Nimbus_Sans_L_Regular-101"/>
      <use transform="translate(127.321662 0)scale(0.996264)" xlink:href="#Nimbus_Sans_L_Regular-97"/>
      <use transform="translate(182.713339 0)scale(0.996264)" xlink:href="#Nimbus_Sans_L_Regular-116"/>
      <use transform="translate(238.103678 0)scale(0.996264)" xlink:href="#Nimbus_Sans_L_Regular-99"/>
      <use transform="translate(287.916878 0)scale(0.996264)" xlink:href="#Nimbus_Sans_L_Regular-97"/>
      <use transform="translate(343.308555 0)scale(0.996264)" xlink:href="#Nimbus_Sans_L_Regular-112"/>
      <use transform="translate(398.700232 0)scale(0.996264)" xlink:href="#Nimbus_Sans_L_Regular-97"/>
      <use transform="translate(454.091909 0)scale(0.996264)" xlink:href="#Nimbus_Sans_L_Regular-99"/>
      <use transform="translate(503.90511 0)scale(0.996264)" xlink:href="#Nimbus_Sans_L_Regular-105"/>
      <use transform="translate(526.021894 0)scale(0.996264)" xlink:href="#Nimbus_Sans_L_Regular-116"/>
      <use transform="translate(553.717064 0)scale(0.996264)" xlink:href="#Nimbus_Sans_L_Regular-121"/>
     </g>
    </g>
   </g>
   <g id="line2d_33">
    <path clip-path="url(#pf540181cb6)" d="M 34.031637 155.375998 
L 45.221397 155.270315 
L 48.078357 155.028003 
L 50.221077 154.652885 
L 52.125717 154.106704 
L 53.792277 153.408614 
L 55.458837 152.451273 
L 56.887317 151.382185 
L 58.315797 150.04483 
L 59.744277 148.401751 
L 61.172757 146.416466 
L 62.601237 144.055613 
L 64.029717 141.291745 
L 65.696277 137.534355 
L 67.362837 133.198592 
L 69.267477 127.57168 
L 71.410197 120.51559 
L 74.981397 107.800376 
L 78.076437 97.080616 
L 79.981077 91.269166 
L 81.409557 87.527401 
L 82.838037 84.425286 
L 84.028437 82.37886 
L 84.980757 81.111243 
L 85.933077 80.176635 
L 86.885397 79.572478 
L 87.837717 79.29037 
L 88.551957 79.282142 
L 89.504277 79.528311 
L 90.456597 80.04925 
L 91.408917 80.821534 
L 92.599317 82.101639 
L 94.027797 84.031085 
L 95.694357 86.711454 
L 97.837077 90.63079 
L 101.408277 97.727194 
L 105.931797 106.626543 
L 108.788757 111.792426 
L 111.407637 116.104484 
L 114.026517 119.98785 
L 116.645397 123.451038 
L 119.264277 126.520194 
L 121.883157 129.23021 
L 124.502037 131.619007 
L 127.120917 133.724092 
L 129.977877 135.738225 
L 133.072917 137.634073 
L 136.406037 139.393868 
L 139.977237 141.008431 
L 143.786517 142.475699 
L 147.833877 143.79906 
L 152.357397 145.046078 
L 157.357077 146.197185 
L 163.070997 147.283963 
L 169.737237 148.315242 
L 177.355797 149.259781 
L 186.164757 150.123651 
L 196.640277 150.922654 
L 209.258517 151.655544 
L 213.067797 151.839865 
L 213.067797 151.839865 
" style="fill:none;stroke:#a1dab4;stroke-linecap:square;"/>
   </g>
   <g id="line2d_34">
    <path clip-path="url(#pf540181cb6)" d="M 34.031637 155.375997 
L 44.745237 155.265083 
L 47.364117 155.017412 
L 49.268757 154.64531 
L 50.935317 154.112466 
L 52.363797 153.445963 
L 53.792277 152.531242 
L 55.220757 151.309374 
L 56.411157 150.008983 
L 57.601557 148.407054 
L 58.791957 146.457293 
L 59.982357 144.109432 
L 61.172757 141.309418 
L 62.363157 138.000142 
L 63.791637 133.274564 
L 65.220117 127.635219 
L 66.648597 121.004747 
L 68.077077 113.348483 
L 69.743637 103.180881 
L 71.886357 88.611776 
L 75.219477 65.74117 
L 76.647957 57.516874 
L 77.600277 53.046439 
L 78.552597 49.566931 
L 79.266837 47.671432 
L 79.981077 46.414894 
L 80.457237 45.934904 
L 80.933397 45.737687 
L 81.409557 45.816492 
L 81.885717 46.16145 
L 82.361877 46.759929 
L 83.076117 48.099662 
L 83.790357 49.917386 
L 84.742677 52.972451 
L 85.933077 57.58047 
L 87.837717 66.070463 
L 92.599317 87.828611 
L 94.503957 95.402304 
L 96.408597 102.066048 
L 98.075157 107.162665 
L 99.741717 111.62656 
L 101.408277 115.524308 
L 103.074837 118.926055 
L 104.979477 122.29227 
L 106.884117 125.188255 
L 108.788757 127.691526 
L 110.931477 130.118883 
L 113.074197 132.207153 
L 115.454997 134.203314 
L 117.835797 135.921586 
L 120.454677 137.551746 
L 123.311637 139.079286 
L 126.644757 140.597648 
L 130.215957 141.975409 
L 134.263317 143.29341 
L 138.786837 144.528626 
L 144.024597 145.71793 
L 149.976597 146.830819 
L 156.880917 147.883182 
L 164.737557 148.849362 
L 174.022677 149.759039 
L 184.974357 150.599499 
L 198.068757 151.372088 
L 213.067797 152.042464 
L 213.067797 152.042464 
" style="fill:none;stroke:#41b6c4;stroke-linecap:square;"/>
   </g>
   <g id="line2d_35">
    <path clip-path="url(#pf540181cb6)" d="M 34.031637 155.375997 
L 44.745237 155.271685 
L 47.364117 155.026861 
L 49.268757 154.645069 
L 50.935317 154.080985 
L 52.363797 153.35591 
L 53.554197 152.529307 
L 54.744597 151.451363 
L 55.934997 150.069586 
L 57.125397 148.325343 
L 58.315797 146.154117 
L 59.506197 143.486219 
L 60.696597 140.248114 
L 61.886997 136.364482 
L 63.077397 131.761071 
L 64.267797 126.368355 
L 65.696277 118.77145 
L 67.124757 109.878983 
L 68.791317 97.8502 
L 70.695957 82.13649 
L 75.457557 41.421343 
L 76.409877 35.4316 
L 77.124117 31.958312 
L 77.838357 29.493367 
L 78.314517 28.450169 
L 78.790677 27.900975 
L 79.028757 27.812155 
L 79.266837 27.84618 
L 79.742997 28.275986 
L 80.219157 29.170993 
L 80.695317 30.503227 
L 81.409557 33.242852 
L 82.361877 38.055441 
L 83.552277 45.411346 
L 86.171157 63.66953 
L 88.313877 77.865894 
L 89.980437 87.482878 
L 91.408917 94.603347 
L 92.837397 100.735596 
L 94.265877 105.982707 
L 95.694357 110.46529 
L 97.122837 114.301656 
L 98.789397 118.102124 
L 100.455957 121.311182 
L 102.122517 124.045121 
L 104.027157 126.70533 
L 105.931797 128.971608 
L 108.074517 131.15011 
L 110.217237 133.01783 
L 112.598037 134.805375 
L 115.216917 136.495091 
L 118.073877 138.077927 
L 121.406997 139.655188 
L 124.978197 141.093053 
L 129.025557 142.476718 
L 133.549077 143.781944 
L 138.548757 144.994133 
L 144.262677 146.150093 
L 150.928917 147.261497 
L 158.547477 148.294897 
L 167.356437 149.255097 
L 177.593877 150.139069 
L 189.735957 150.955234 
L 204.258837 151.699366 
L 213.067797 152.061139 
L 213.067797 152.061139 
" style="fill:none;stroke:#2c7fb8;stroke-linecap:square;"/>
   </g>
   <g id="line2d_36">
    <path clip-path="url(#pf540181cb6)" d="M 34.031637 155.375997 
L 44.507157 155.26914 
L 46.887957 155.024869 
L 48.554517 154.658027 
L 49.982997 154.1307 
L 51.173397 153.478774 
L 52.363797 152.572413 
L 53.554197 151.345487 
L 54.744597 149.725255 
L 55.934997 147.635543 
L 57.125397 145.001993 
L 58.315797 141.759837 
L 59.506197 137.864172 
L 60.934677 132.310671 
L 62.363157 125.855276 
L 64.267797 116.103004 
L 66.648597 102.669144 
L 68.791317 89.481772 
L 70.457877 77.800138 
L 71.886357 66.042052 
L 73.314837 52.341835 
L 76.171797 23.86597 
L 76.886037 18.769231 
L 77.362197 16.336634 
L 77.838357 14.808751 
L 78.076437 14.407847 
L 78.314517 14.256 
L 78.552597 14.354708 
L 78.790677 14.702412 
L 79.266837 16.123798 
L 79.742997 18.451218 
L 80.457237 23.402519 
L 81.409557 32.005569 
L 85.694997 74.286189 
L 86.885397 83.192115 
L 88.075797 90.615699 
L 89.266197 96.771538 
L 90.456597 101.892421 
L 91.646997 106.187365 
L 93.075477 110.491154 
L 94.503957 114.081944 
L 95.932437 117.128493 
L 97.598997 120.156547 
L 99.265557 122.748065 
L 101.170197 125.298293 
L 103.312917 127.760794 
L 105.455637 129.887033 
L 107.836437 131.938032 
L 110.455317 133.891657 
L 113.312277 135.733513 
L 116.407317 137.455355 
L 119.740437 139.053776 
L 123.549717 140.619864 
L 127.597077 142.0398 
L 132.120597 143.389585 
L 137.120277 144.649825 
L 142.834197 145.855378 
L 149.262357 146.97815 
L 156.642837 148.032859 
L 164.975637 148.995487 
L 174.736917 149.894402 
L 186.164757 150.718727 
L 199.973397 151.482805 
L 213.067797 152.042162 
L 213.067797 152.042162 
" style="fill:none;stroke:#253494;stroke-linecap:square;"/>
   </g>
   <g id="patch_3">
    <path d="M 34.269717 162.432 
L 34.269717 7.2 
" style="fill:none;stroke:#000000;stroke-linecap:square;stroke-linejoin:miter;stroke-width:0.8;"/>
   </g>
   <g id="patch_4">
    <path d="M 212.829717 162.432 
L 212.829717 7.2 
" style="fill:none;stroke:#000000;stroke-linecap:square;stroke-linejoin:miter;stroke-width:0.8;"/>
   </g>
   <g id="patch_5">
    <path d="M 34.269717 162.432 
L 212.829717 162.432 
" style="fill:none;stroke:#000000;stroke-linecap:square;stroke-linejoin:miter;stroke-width:0.8;"/>
   </g>
   <g id="patch_6">
    <path d="M 34.269717 7.2 
L 212.829717 7.2 
" style="fill:none;stroke:#000000;stroke-linecap:square;stroke-linejoin:miter;stroke-width:0.8;"/>
   </g>
   <g id="legend_1">
    <g id="line2d_37">
     <path d="M 177.39748 16.018824 
L 191.39748 16.018824 
" style="fill:none;stroke:#a1dab4;stroke-linecap:square;"/>
    </g>
    <g id="line2d_38"/>
    <g id="text_19">
     <!-- 16 -->
     <g transform="translate(194.89748 18.468824)scale(0.07 -0.07)">
      <use transform="scale(0.996264)" xlink:href="#Nimbus_Sans_L_Regular-49"/>
      <use transform="translate(55.391677 0)scale(0.996264)" xlink:href="#Nimbus_Sans_L_Regular-54"/>
     </g>
    </g>
    <g id="line2d_39">
     <path d="M 177.39748 25.97303 
L 191.39748 25.97303 
" style="fill:none;stroke:#41b6c4;stroke-linecap:square;"/>
    </g>
    <g id="line2d_40"/>
    <g id="text_20">
     <!-- 36 -->
     <g transform="translate(194.89748 28.42303)scale(0.07 -0.07)">
      <use transform="scale(0.996264)" xlink:href="#Nimbus_Sans_L_Regular-51"/>
      <use transform="translate(55.391677 0)scale(0.996264)" xlink:href="#Nimbus_Sans_L_Regular-54"/>
     </g>
    </g>
    <g id="line2d_41">
     <path d="M 177.39748 35.927235 
L 191.39748 35.927235 
" style="fill:none;stroke:#2c7fb8;stroke-linecap:square;"/>
    </g>
    <g id="line2d_42"/>
    <g id="text_21">
     <!-- 64 -->
     <g transform="translate(194.89748 38.377235)scale(0.07 -0.07)">
      <use transform="scale(0.996264)" xlink:href="#Nimbus_Sans_L_Regular-54"/>
      <use transform="translate(55.391677 0)scale(0.996264)" xlink:href="#Nimbus_Sans_L_Regular-52"/>
     </g>
    </g>
    <g id="line2d_43">
     <path d="M 177.39748 45.881441 
L 191.39748 45.881441 
" style="fill:none;stroke:#253494;stroke-linecap:square;"/>
    </g>
    <g id="line2d_44"/>
    <g id="text_22">
     <!-- 144 -->
     <g transform="translate(194.89748 48.331441)scale(0.07 -0.07)">
      <use transform="scale(0.996264)" xlink:href="#Nimbus_Sans_L_Regular-49"/>
      <use transform="translate(55.391677 0)scale(0.996264)" xlink:href="#Nimbus_Sans_L_Regular-52"/>
      <use transform="translate(110.783354 0)scale(0.996264)" xlink:href="#Nimbus_Sans_L_Regular-52"/>
     </g>
    </g>
   </g>
  </g>
 </g>
 <defs>
  <clipPath id="pf540181cb6">
   <rect height="155.232" width="178.56" x="34.269717" y="7.2"/>
  </clipPath>
 </defs>
</svg>
