<?xml version="1.0" encoding="UTF-8" standalone="no"?>
<!DOCTYPE svg PUBLIC "-//W3C//DTD SVG 1.1//EN"
 "http://www.w3.org/Graphics/SVG/1.1/DTD/svg11.dtd">
<!-- Generated by graphviz version 2.40.1 (20161225.0304)
 -->
<!-- Title: g Pages: 1 -->
<svg width="426pt" height="519pt"
 viewBox="0.00 0.00 426.30 519.00" xmlns="http://www.w3.org/2000/svg" xmlns:xlink="http://www.w3.org/1999/xlink">
<g id="graph0" class="graph" transform="scale(1 1) rotate(0) translate(4 515)">
<title>g</title>
<!-- Prototype -->
<g id="node1" class="node">
<title>Prototype</title>
<polygon fill="#eead0e" stroke="#eead0e" points="128.303,-511 13.303,-511 13.303,-475 128.303,-475 128.303,-511"/>
<text text-anchor="middle" x="70.803" y="-489.9" font-family="Helvetica,sans-Serif" font-size="12.00" fill="#ffffff">prototype structure</text>
</g>
<!-- ClusterSpace -->
<g id="node5" class="node">
<title>ClusterSpace</title>
<g id="a_node5"><a xlink:href="../moduleref_icet/cluster_space.html#icet.ClusterSpace" xlink:title="ClusterSpace" target="_top">
<ellipse fill="#6495ed" stroke="#6495ed" cx="190.803" cy="-420" rx="54.5753" ry="18"/>
<text text-anchor="middle" x="190.803" y="-416.9" font-family="Helvetica,sans-Serif" font-size="12.00" fill="#ffffff">ClusterSpace</text>
</a>
</g>
</g>
<!-- Prototype&#45;&gt;ClusterSpace -->
<g id="edge1" class="edge">
<title>Prototype&#45;&gt;ClusterSpace</title>
<path fill="none" stroke="#000000" stroke-width="1.5" d="M100.466,-474.9551C117.2512,-464.7441 138.335,-451.9181 155.9114,-441.2257"/>
<polygon fill="#000000" stroke="#000000" stroke-width="1.5" points="158.0174,-444.0414 164.7417,-435.854 154.3793,-438.061 158.0174,-444.0414"/>
</g>
<!-- Cutoffs -->
<g id="node2" class="node">
<title>Cutoffs</title>
<polygon fill="#eead0e" stroke="#eead0e" points="234.803,-511 146.803,-511 146.803,-475 234.803,-475 234.803,-511"/>
<text text-anchor="middle" x="190.803" y="-496.4" font-family="Helvetica,sans-Serif" font-size="12.00" fill="#ffffff">cutoff radii for</text>
<text text-anchor="middle" x="190.803" y="-483.4" font-family="Helvetica,sans-Serif" font-size="12.00" fill="#ffffff">each order</text>
</g>
<!-- Cutoffs&#45;&gt;ClusterSpace -->
<g id="edge3" class="edge">
<title>Cutoffs&#45;&gt;ClusterSpace</title>
<path fill="none" stroke="#000000" stroke-width="1.5" d="M190.803,-474.9551C190.803,-466.8828 190.803,-457.1764 190.803,-448.1817"/>
<polygon fill="#000000" stroke="#000000" stroke-width="1.5" points="194.3031,-448.0903 190.803,-438.0904 187.3031,-448.0904 194.3031,-448.0903"/>
</g>
<!-- Elements -->
<g id="node3" class="node">
<title>Elements</title>
<polygon fill="#eead0e" stroke="#eead0e" points="344.803,-511 252.803,-511 252.803,-475 344.803,-475 344.803,-511"/>
<text text-anchor="middle" x="298.803" y="-489.9" font-family="Helvetica,sans-Serif" font-size="12.00" fill="#ffffff">active species</text>
</g>
<!-- Elements&#45;&gt;ClusterSpace -->
<g id="edge2" class="edge">
<title>Elements&#45;&gt;ClusterSpace</title>
<path fill="none" stroke="#000000" stroke-width="1.5" d="M272.1064,-474.9551C257.3491,-464.9802 238.9,-452.51 223.3081,-441.971"/>
<polygon fill="#000000" stroke="#000000" stroke-width="1.5" points="225.2265,-439.0432 214.9815,-436.3429 221.3064,-444.8426 225.2265,-439.0432"/>
</g>
<!-- Structures -->
<g id="node4" class="node">
<title>Structures</title>
<polygon fill="#eead0e" stroke="#eead0e" points="381.803,-438 263.803,-438 263.803,-402 381.803,-402 381.803,-438"/>
<text text-anchor="middle" x="322.803" y="-423.4" font-family="Helvetica,sans-Serif" font-size="12.00" fill="#ffffff">input structures</text>
<text text-anchor="middle" x="322.803" y="-410.4" font-family="Helvetica,sans-Serif" font-size="12.00" fill="#ffffff">with reference data</text>
</g>
<!-- StructureContainer -->
<g id="node6" class="node">
<title>StructureContainer</title>
<g id="a_node6"><a xlink:href="../moduleref_icet/structure_container.html#icet.StructureContainer" xlink:title="StructureContainer" target="_top">
<ellipse fill="#6495ed" stroke="#6495ed" cx="290.803" cy="-347" rx="72.0474" ry="18"/>
<text text-anchor="middle" x="290.803" y="-343.9" font-family="Helvetica,sans-Serif" font-size="12.00" fill="#ffffff">StructureContainer</text>
</a>
</g>
</g>
<!-- Structures&#45;&gt;StructureContainer -->
<g id="edge5" class="edge">
<title>Structures&#45;&gt;StructureContainer</title>
<path fill="none" stroke="#000000" stroke-width="1.5" d="M314.8929,-401.9551C311.239,-393.6196 306.8213,-383.5416 302.772,-374.3042"/>
<polygon fill="#000000" stroke="#000000" stroke-width="1.5" points="305.9534,-372.8439 298.7331,-365.0904 299.5423,-375.6542 305.9534,-372.8439"/>
</g>
<!-- ClusterSpace&#45;&gt;StructureContainer -->
<g id="edge4" class="edge">
<title>ClusterSpace&#45;&gt;StructureContainer</title>
<path fill="none" stroke="#000000" stroke-width="1.5" d="M213.4946,-403.4352C226.8862,-393.6593 244.0478,-381.1313 258.7984,-370.3634"/>
<polygon fill="#000000" stroke="#000000" stroke-width="1.5" points="261.1446,-372.984 267.1579,-364.261 257.0173,-367.3302 261.1446,-372.984"/>
</g>
<!-- ClusterExpansion -->
<g id="node8" class="node">
<title>ClusterExpansion</title>
<g id="a_node8"><a xlink:href="../moduleref_icet/cluster_expansion.html#icet.ClusterExpansion" xlink:title="ClusterExpansion" target="_top">
<ellipse fill="#6495ed" stroke="#6495ed" cx="216.803" cy="-164" rx="68.8915" ry="18"/>
<text text-anchor="middle" x="216.803" y="-160.9" font-family="Helvetica,sans-Serif" font-size="12.00" fill="#ffffff">ClusterExpansion</text>
</a>
</g>
</g>
<!-- ClusterSpace&#45;&gt;ClusterExpansion -->
<g id="edge7" class="edge">
<title>ClusterSpace&#45;&gt;ClusterExpansion</title>
<path fill="none" stroke="#000000" stroke-width="1.5" d="M192.6313,-401.9986C197.0866,-358.1308 208.5329,-245.4285 213.9193,-192.3938"/>
<polygon fill="#000000" stroke="#000000" stroke-width="1.5" points="217.4136,-192.6267 214.942,-182.3242 210.4494,-191.9193 217.4136,-192.6267"/>
</g>
<!-- Optimizer -->
<g id="node7" class="node">
<title>Optimizer</title>
<g id="a_node7"><a xlink:href="../moduleref_icet/optimizers.html" xlink:title="Optimizer" target="_top">
<ellipse fill="#6495ed" stroke="#6495ed" cx="275.803" cy="-249" rx="41.7203" ry="18"/>
<text text-anchor="middle" x="275.803" y="-245.9" font-family="Helvetica,sans-Serif" font-size="12.00" fill="#ffffff">Optimizer</text>
</a>
</g>
</g>
<!-- StructureContainer&#45;&gt;Optimizer -->
<g id="edge6" class="edge">
<title>StructureContainer&#45;&gt;Optimizer</title>
<path fill="none" stroke="#000000" stroke-width="1.5" d="M287.9816,-328.5669C285.7678,-314.1034 282.6485,-293.7239 280.1211,-277.2111"/>
<polygon fill="#000000" stroke="#000000" stroke-width="1.5" points="283.5339,-276.3746 278.5611,-267.0193 276.6145,-277.4337 283.5339,-276.3746"/>
<text text-anchor="middle" x="343.303" y="-301.4" font-family="Helvetica,sans-Serif" font-size="12.00" fill="#000000">fit matrix and</text>
<text text-anchor="middle" x="343.303" y="-288.4" font-family="Helvetica,sans-Serif" font-size="12.00" fill="#000000">vector of target values</text>
</g>
<!-- Optimizer&#45;&gt;ClusterExpansion -->
<g id="edge8" class="edge">
<title>Optimizer&#45;&gt;ClusterExpansion</title>
<path fill="none" stroke="#000000" stroke-width="1.5" d="M263.5782,-231.3879C255.3272,-219.5009 244.2924,-203.6033 235.0128,-190.2344"/>
<polygon fill="#000000" stroke="#000000" stroke-width="1.5" points="237.7926,-188.1011 229.2152,-181.8819 232.0421,-192.0927 237.7926,-188.1011"/>
<text text-anchor="middle" x="280.303" y="-203.4" font-family="Helvetica,sans-Serif" font-size="12.00" fill="#000000">parameters</text>
</g>
<!-- ClusterExpansionCalculator -->
<g id="node9" class="node">
<title>ClusterExpansionCalculator</title>
<g id="a_node9"><a xlink:href="../moduleref_mchammer/calculators.html#mchammer.calculators.ClusterExpansionCalculator" xlink:title="ClusterExpansionCalculator" target="_top">
<ellipse fill="#6495ed" stroke="#6495ed" cx="102.803" cy="-91" rx="102.6064" ry="18"/>
<text text-anchor="middle" x="102.803" y="-87.9" font-family="Helvetica,sans-Serif" font-size="12.00" fill="#ffffff">ClusterExpansionCalculator</text>
</a>
</g>
</g>
<!-- ClusterExpansion&#45;&gt;ClusterExpansionCalculator -->
<g id="edge12" class="edge">
<title>ClusterExpansion&#45;&gt;ClusterExpansionCalculator</title>
<path fill="none" stroke="#000000" stroke-width="1.5" d="M190.6491,-147.2523C175.1992,-137.3589 155.4225,-124.6949 138.5471,-113.8888"/>
<polygon fill="#000000" stroke="#000000" stroke-width="1.5" points="140.3339,-110.8769 130.0251,-108.4317 136.5591,-116.7718 140.3339,-110.8769"/>
</g>
<!-- predict -->
<g id="node12" class="node">
<title>predict</title>
<g id="a_node12"><a xlink:href="../moduleref_icet/cluster_expansion.html#icet.ClusterExpansion.predict" xlink:title="Predict property" target="_top">
<polygon fill="#006400" stroke="#006400" points="382.303,-109 281.303,-109 281.303,-73 382.303,-73 382.303,-109"/>
<text text-anchor="middle" x="331.803" y="-87.9" font-family="Helvetica,sans-Serif" font-size="12.00" fill="#ffffff">Predict property</text>
</a>
</g>
</g>
<!-- ClusterExpansion&#45;&gt;predict -->
<g id="edge10" class="edge">
<title>ClusterExpansion&#45;&gt;predict</title>
<path fill="none" stroke="#000000" stroke-width="1.5" d="M243.1864,-147.2523C258.433,-137.574 277.8566,-125.2442 294.6311,-114.5961"/>
<polygon fill="#000000" stroke="#000000" stroke-width="1.5" points="296.5585,-117.5183 303.1254,-109.204 292.807,-111.6084 296.5585,-117.5183"/>
</g>
<!-- MC -->
<g id="node13" class="node">
<title>MC</title>
<g id="a_node13"><a xlink:href="../moduleref_mchammer/index.html" xlink:title="Monte Carlo simulations\nvia mchammer" target="_top">
<polygon fill="#006400" stroke="#006400" points="175.803,-36 29.803,-36 29.803,0 175.803,0 175.803,-36"/>
<text text-anchor="middle" x="102.803" y="-21.4" font-family="Helvetica,sans-Serif" font-size="12.00" fill="#ffffff">Monte Carlo simulations</text>
<text text-anchor="middle" x="102.803" y="-8.4" font-family="Helvetica,sans-Serif" font-size="12.00" fill="#ffffff">via mchammer</text>
</a>
</g>
</g>
<!-- ClusterExpansionCalculator&#45;&gt;MC -->
<g id="edge13" class="edge">
<title>ClusterExpansionCalculator&#45;&gt;MC</title>
<path fill="none" stroke="#000000" stroke-width="1.5" d="M102.803,-72.9551C102.803,-64.8828 102.803,-55.1764 102.803,-46.1817"/>
<polygon fill="#000000" stroke="#000000" stroke-width="1.5" points="106.3031,-46.0903 102.803,-36.0904 99.3031,-46.0904 106.3031,-46.0903"/>
</g>
<!-- Supercell -->
<g id="node10" class="node">
<title>Supercell</title>
<polygon fill="#eead0e" stroke="#eead0e" points="129.803,-182 15.803,-182 15.803,-146 129.803,-146 129.803,-182"/>
<text text-anchor="middle" x="72.803" y="-160.9" font-family="Helvetica,sans-Serif" font-size="12.00" fill="#ffffff">supercell structure</text>
</g>
<!-- Supercell&#45;&gt;ClusterExpansionCalculator -->
<g id="edge11" class="edge">
<title>Supercell&#45;&gt;ClusterExpansionCalculator</title>
<path fill="none" stroke="#000000" stroke-width="1.5" d="M80.2188,-145.9551C83.6082,-137.7074 87.6988,-127.7536 91.4621,-118.5962"/>
<polygon fill="#000000" stroke="#000000" stroke-width="1.5" points="94.8047,-119.6702 95.3686,-109.0904 88.3302,-117.0094 94.8047,-119.6702"/>
</g>
<!-- structures -->
<g id="node11" class="node">
<title>structures</title>
<polygon fill="#eead0e" stroke="#eead0e" points="418.303,-182 303.303,-182 303.303,-146 418.303,-146 418.303,-182"/>
<text text-anchor="middle" x="360.803" y="-160.9" font-family="Helvetica,sans-Serif" font-size="12.00" fill="#ffffff">arbitrary structures</text>
</g>
<!-- structures&#45;&gt;predict -->
<g id="edge9" class="edge">
<title>structures&#45;&gt;predict</title>
<path fill="none" stroke="#000000" stroke-width="1.5" d="M353.6345,-145.9551C350.358,-137.7074 346.4038,-127.7536 342.7659,-118.5962"/>
<polygon fill="#000000" stroke="#000000" stroke-width="1.5" points="345.9344,-117.0917 338.9896,-109.0904 339.4289,-119.6761 345.9344,-117.0917"/>
</g>
</g>
</svg>
